#N canvas -8 -8 1366 685 10;
#X declare -lib mrpeach;
#X obj 215 127 sendOSC;
#X msg 186 67 connect localhost 12001;
#X floatatom 251 303 5 0 0 0 - - -;
#X floatatom 173 301 5 0 0 0 - - -;
#X floatatom 79 299 5 0 0 0 - - -;
#X floatatom 342 305 5 0 0 0 - - -;
#X msg 68 225 send /s \$1;
#X msg 163 225 send /d \$1;
#X msg 334 227 send /in \$1;
#X obj -141 -46 import mrpeach;
#X obj -136 243 unpackOSC;
#X obj -120 334 print;
#X obj -157 412 routeOSC /oscControl;
#X obj -36 97 routeOSC /oscControl/2Dx;
#X obj -138 216 udpreceive 8001;
#X obj 621 470 dac~;
#X obj 494 143 bng 15 250 50 0 empty empty empty 17 7 0 10 -262144
-1 -1;
#X msg 525 70 1;
#X obj 455 68 tgl 15 0 empty empty empty 17 7 0 10 -262144 -1 -1 1
1;
#X obj 494 110 metro 500;
#X obj 633 320 click~;
#X msg 491 70 0;
#X floatatom 699 394 5 0 0 0 - - -;
#X floatatom 564 77 5 0 0 0 - - -;
#X obj 646 145 bng 15 250 50 0 empty empty empty 17 7 0 10 -262144
-1 -1;
#X msg 677 72 1;
#X obj 607 70 tgl 15 0 empty empty empty 17 7 0 10 -262144 -1 -1 1
1;
#X msg 643 72 0;
#X floatatom 716 79 5 0 0 0 - - -;
#X obj 802 154 bng 15 250 50 0 empty empty empty 17 7 0 10 -262144
-1 -1;
#X msg 833 81 1;
#X obj 763 79 tgl 15 0 empty empty empty 17 7 0 10 -262144 -1 -1 1
1;
#X msg 799 81 0;
#X floatatom 872 88 5 0 0 0 - - -;
#X obj 964 163 bng 15 250 50 0 empty empty empty 17 7 0 10 -262144
-1 -1;
#X msg 995 90 1;
#X obj 925 88 tgl 15 0 empty empty empty 17 7 0 10 -262144 -1 -1 1
1;
#X msg 961 90 0;
#X floatatom 1034 97 5 0 0 0 - - -;
#X obj 802 121 metro 1000;
#X obj 964 130 metro 2000;
#X obj 685 6 tgl 15 0 empty empty empty 17 7 0 10 -262144 -1 -1 0 1
;
#X obj 646 112 metro 750;
#X msg 242 226 send /x \$1;
#X floatatom 981 4 5 0 0 0 - - -;
#X obj 66 373 routeOSC /oscControl/B1 /oscControl/B2 /oscControl/B3
/oscControl/B4 /oscControl/B5;
#X connect 1 0 0 0;
#X connect 2 0 43 0;
#X connect 3 0 7 0;
#X connect 4 0 6 0;
#X connect 5 0 8 0;
#X connect 6 0 0 0;
#X connect 7 0 0 0;
#X connect 8 0 0 0;
#X connect 10 0 11 0;
#X connect 10 0 12 0;
#X connect 10 0 13 0;
#X connect 10 0 45 0;
#X connect 13 0 4 0;
#X connect 13 0 3 0;
#X connect 13 0 2 0;
#X connect 13 0 5 0;
#X connect 14 0 10 0;
#X connect 16 0 20 0;
#X connect 16 0 22 0;
#X connect 17 0 19 0;
#X connect 18 0 19 0;
#X connect 19 0 16 0;
#X connect 19 0 6 0;
#X connect 20 0 15 0;
#X connect 20 0 15 1;
#X connect 21 0 19 0;
#X connect 23 0 19 1;
#X connect 24 0 20 0;
#X connect 25 0 42 0;
#X connect 26 0 42 0;
#X connect 27 0 42 0;
#X connect 28 0 42 1;
#X connect 29 0 20 0;
#X connect 30 0 39 0;
#X connect 31 0 39 0;
#X connect 32 0 39 0;
#X connect 33 0 39 1;
#X connect 34 0 20 0;
#X connect 35 0 40 0;
#X connect 36 0 40 0;
#X connect 37 0 40 0;
#X connect 38 0 40 1;
#X connect 39 0 29 0;
#X connect 39 0 43 0;
#X connect 40 0 34 0;
#X connect 40 0 8 0;
#X connect 41 0 40 0;
#X connect 41 0 39 0;
#X connect 41 0 19 0;
#X connect 41 0 42 0;
#X connect 42 0 24 0;
#X connect 42 0 7 0;
#X connect 43 0 0 0;
#X connect 44 0 41 0;
#X connect 45 0 4 0;
#X connect 45 0 7 0;
#X connect 45 1 3 0;
#X connect 45 2 2 0;
#X connect 45 3 8 0;
#X connect 45 4 44 0;
